<svg id="svg" version="1.1" xmlns="http://www.w3.org/2000/svg" xmlns:xlink="http://www.w3.org/1999/xlink" width="400" height="400" viewBox="0, 0, 400,400"><g id="svgg"><path id="path0" d="M227.745 157.000 C 227.579 157.431,226.906 157.600,225.357 157.600 C 224.171 157.600,223.200 157.780,223.200 158.000 C 223.200 158.220,222.660 158.400,222.000 158.400 L 220.800 158.400 220.800 166.600 C 220.800 171.800,220.946 174.800,221.200 174.800 C 221.453 174.800,221.600 177.733,221.600 182.800 C 221.600 187.867,221.747 190.800,222.000 190.800 C 222.256 190.800,222.400 194.400,222.400 200.800 C 222.400 207.200,222.544 210.800,222.800 210.800 C 223.053 210.800,223.200 213.600,223.200 218.400 L 223.200 226.000 226.800 226.000 C 228.933 226.000,230.400 226.163,230.400 226.400 C 230.400 226.658,234.867 226.800,243.000 226.800 C 251.133 226.800,255.600 226.658,255.600 226.400 C 255.600 226.180,256.410 226.000,257.400 226.000 C 258.733 226.000,259.200 225.844,259.200 225.400 C 259.200 224.981,259.622 224.800,260.600 224.800 C 261.370 224.800,262.000 224.620,262.000 224.400 C 262.000 224.180,262.500 224.000,263.112 224.000 C 263.765 224.000,264.461 223.670,264.800 223.200 C 265.117 222.760,265.705 222.400,266.106 222.400 C 266.784 222.400,268.800 220.746,268.800 220.190 C 268.800 219.783,269.911 218.800,270.371 218.800 C 270.607 218.800,270.800 218.440,270.800 218.000 C 270.800 217.560,270.980 217.200,271.200 217.200 C 271.420 217.200,271.600 216.210,271.600 215.000 C 271.600 213.790,271.780 212.800,272.000 212.800 C 272.220 212.800,272.400 211.990,272.400 211.000 C 272.400 210.010,272.220 209.200,272.000 209.200 C 271.780 209.200,271.600 208.491,271.600 207.624 C 271.600 206.757,271.420 205.936,271.200 205.800 C 270.980 205.664,270.800 205.203,270.800 204.776 C 270.800 204.349,270.530 204.000,270.200 204.000 C 269.867 204.000,269.600 203.644,269.600 203.200 C 269.600 202.760,269.420 202.400,269.200 202.400 C 268.980 202.400,268.800 202.170,268.800 201.888 C 268.800 201.607,268.440 201.117,268.000 200.800 C 267.044 200.111,266.967 199.600,267.819 199.600 C 268.574 199.600,272.400 195.848,272.400 195.107 C 272.400 194.815,272.760 194.317,273.200 194.000 C 273.640 193.683,274.000 193.013,274.000 192.512 C 274.000 191.968,274.242 191.600,274.600 191.600 C 274.997 191.600,275.200 191.203,275.200 190.424 C 275.200 189.777,275.380 189.136,275.600 189.000 C 275.820 188.864,276.000 188.043,276.000 187.176 C 276.000 186.309,276.180 185.600,276.400 185.600 C 276.646 185.600,276.800 183.600,276.800 180.400 C 276.800 177.200,276.646 175.200,276.400 175.200 C 276.180 175.200,276.000 174.390,276.000 173.400 C 276.000 172.410,275.820 171.600,275.600 171.600 C 275.380 171.600,275.200 171.234,275.200 170.787 C 275.200 170.341,274.930 169.871,274.600 169.745 C 274.270 169.618,274.000 169.174,274.000 168.757 C 274.000 168.341,273.820 168.000,273.600 168.000 C 273.380 168.000,273.200 167.732,273.200 167.405 C 273.200 166.768,272.273 165.491,271.050 164.443 C 270.637 164.089,269.880 163.395,269.368 162.900 C 268.856 162.405,268.177 162.000,267.861 162.000 C 267.545 162.000,267.182 161.730,267.055 161.400 C 266.929 161.070,266.459 160.800,266.013 160.800 C 265.566 160.800,265.200 160.620,265.200 160.400 C 265.200 160.180,264.840 160.000,264.400 160.000 C 263.960 160.000,263.600 159.820,263.600 159.600 C 263.600 159.380,262.970 159.200,262.200 159.200 C 261.430 159.200,260.800 159.020,260.800 158.800 C 260.800 158.580,260.260 158.400,259.600 158.400 C 258.940 158.400,258.400 158.220,258.400 158.000 C 258.400 157.780,257.429 157.600,256.243 157.600 C 254.694 157.600,254.021 157.431,253.855 157.000 C 253.657 156.484,251.831 156.400,240.800 156.400 C 229.769 156.400,227.943 156.484,227.745 157.000 M254.000 184.200 C 254.000 184.530,254.315 184.806,254.700 184.813 C 259.869 184.906,257.547 193.600,252.353 193.600 L 250.400 193.600 250.400 188.600 L 250.400 183.600 252.200 183.600 C 253.533 183.600,254.000 183.756,254.000 184.200 M254.618 205.782 C 255.158 206.322,255.600 206.954,255.600 207.187 C 255.600 207.420,255.823 207.968,256.096 208.405 C 256.491 209.038,256.491 209.362,256.096 209.995 C 255.823 210.432,255.600 210.984,255.600 211.223 C 255.600 211.865,254.550 212.800,253.829 212.800 C 253.483 212.800,253.200 212.980,253.200 213.200 C 253.200 213.420,252.390 213.600,251.400 213.600 L 249.600 213.600 249.600 209.200 L 249.600 204.800 251.618 204.800 C 253.228 204.800,253.835 204.999,254.618 205.782 " stroke="none" fill="#e4dc54" fill-rule="evenodd"></path><path id="path1" d="M325.200 161.000 C 325.200 161.990,325.380 162.800,325.600 162.800 C 325.857 162.800,326.000 166.733,326.000 173.800 C 326.000 180.867,326.143 184.800,326.400 184.800 C 326.620 184.800,326.800 185.160,326.800 185.600 C 326.800 186.366,327.067 186.400,333.000 186.400 L 339.200 186.400 339.200 188.200 C 339.200 189.190,339.380 190.000,339.600 190.000 C 339.852 190.000,340.000 192.733,340.000 197.400 C 340.000 202.067,340.148 204.800,340.400 204.800 C 340.655 204.800,340.800 208.133,340.800 214.000 C 340.800 219.867,340.945 223.200,341.200 223.200 C 341.420 223.200,341.600 223.560,341.600 224.000 C 341.600 224.781,341.867 224.800,352.600 224.800 L 363.600 224.800 363.600 221.000 C 363.600 218.733,363.761 217.200,364.000 217.200 C 364.253 217.200,364.400 214.267,364.400 209.200 C 364.400 204.133,364.547 201.200,364.800 201.200 C 365.051 201.200,365.200 198.733,365.200 194.600 C 365.200 189.000,365.291 188.000,365.800 188.000 C 366.133 188.000,366.400 187.644,366.400 187.200 C 366.400 186.436,366.667 186.400,372.400 186.400 L 378.400 186.400 378.400 182.800 C 378.400 180.667,378.563 179.200,378.800 179.200 C 379.056 179.200,379.200 175.600,379.200 169.200 L 379.200 159.200 352.200 159.200 L 325.200 159.200 325.200 161.000 " stroke="none" fill="#9ca4e4" fill-rule="evenodd"></path><path id="path2" d="M32.000 160.000 C 32.000 160.440,31.820 160.800,31.600 160.800 C 31.371 160.800,31.200 162.000,31.200 163.600 C 31.200 165.200,31.029 166.400,30.800 166.400 C 30.580 166.400,30.400 167.390,30.400 168.600 C 30.400 170.289,30.261 170.800,29.800 170.800 C 29.328 170.800,29.200 171.356,29.200 173.400 C 29.200 174.867,29.026 176.000,28.800 176.000 C 28.580 176.000,28.400 176.990,28.400 178.200 C 28.400 179.410,28.220 180.400,28.000 180.400 C 27.780 180.400,27.600 181.390,27.600 182.600 C 27.600 183.810,27.420 184.800,27.200 184.800 C 26.980 184.800,26.800 185.520,26.800 186.400 C 26.800 187.280,26.620 188.000,26.400 188.000 C 26.180 188.000,26.000 188.990,26.000 190.200 C 26.000 191.410,25.820 192.400,25.600 192.400 C 25.380 192.400,25.200 193.210,25.200 194.200 C 25.200 195.533,25.044 196.000,24.600 196.000 C 24.156 196.000,24.000 196.467,24.000 197.800 C 24.000 198.790,23.820 199.600,23.600 199.600 C 23.380 199.600,23.200 200.410,23.200 201.400 C 23.200 202.390,23.020 203.200,22.800 203.200 C 22.580 203.200,22.400 203.920,22.400 204.800 C 22.400 205.680,22.220 206.400,22.000 206.400 C 21.780 206.400,21.600 207.390,21.600 208.600 C 21.600 209.810,21.420 210.800,21.200 210.800 C 20.980 210.800,20.800 211.610,20.800 212.600 C 20.800 213.933,20.644 214.400,20.200 214.400 C 19.756 214.400,19.600 214.867,19.600 216.200 C 19.600 217.190,19.420 218.000,19.200 218.000 C 18.980 218.000,18.800 218.810,18.800 219.800 C 18.800 220.790,18.620 221.600,18.400 221.600 C 18.180 221.600,18.000 222.320,18.000 223.200 L 18.000 224.800 25.000 224.800 C 31.733 224.800,32.000 224.770,32.000 224.000 C 32.000 223.560,32.180 223.200,32.400 223.200 C 32.620 223.200,32.800 222.390,32.800 221.400 C 32.800 220.410,32.890 219.600,33.000 219.600 C 33.455 219.600,34.800 221.244,34.800 221.800 C 34.800 222.130,34.980 222.400,35.200 222.400 C 35.420 222.400,35.600 222.940,35.600 223.600 C 35.600 224.260,35.780 224.800,36.000 224.800 C 36.220 224.800,36.400 225.250,36.400 225.800 C 36.400 226.650,36.585 226.800,37.629 226.800 C 38.732 226.800,40.000 226.057,40.000 225.410 C 40.000 224.854,42.016 223.200,42.694 223.200 C 43.095 223.200,43.683 222.840,44.000 222.400 C 44.317 221.960,44.897 221.600,45.288 221.600 C 45.680 221.600,46.000 221.441,46.000 221.247 C 46.000 221.052,46.450 220.807,47.000 220.702 C 47.906 220.529,48.000 220.637,48.000 221.855 C 48.000 222.595,48.180 223.200,48.400 223.200 C 48.620 223.200,48.800 223.560,48.800 224.000 C 48.800 224.783,49.067 224.800,61.400 224.800 C 73.733 224.800,74.000 224.783,74.000 224.000 C 74.000 223.560,73.820 223.200,73.600 223.200 C 73.380 223.200,73.200 222.390,73.200 221.400 C 73.200 220.410,73.020 219.600,72.800 219.600 C 72.580 219.600,72.400 218.880,72.400 218.000 C 72.400 217.120,72.220 216.400,72.000 216.400 C 71.780 216.400,71.600 215.590,71.600 214.600 C 71.600 213.610,71.420 212.800,71.200 212.800 C 70.980 212.800,70.800 211.990,70.800 211.000 C 70.800 209.667,70.644 209.200,70.200 209.200 C 69.739 209.200,69.600 208.689,69.600 207.000 C 69.600 205.790,69.420 204.800,69.200 204.800 C 68.980 204.800,68.800 203.990,68.800 203.000 C 68.800 202.010,68.620 201.200,68.400 201.200 C 68.180 201.200,68.000 200.480,68.000 199.600 C 68.000 198.720,67.820 198.000,67.600 198.000 C 67.380 198.000,67.200 197.190,67.200 196.200 C 67.200 195.210,67.020 194.400,66.800 194.400 C 66.580 194.400,66.400 193.410,66.400 192.200 C 66.400 190.511,66.261 190.000,65.800 190.000 C 65.356 190.000,65.200 189.533,65.200 188.200 C 65.200 187.210,65.020 186.400,64.800 186.400 C 64.580 186.400,64.400 185.410,64.400 184.200 C 64.400 182.990,64.220 182.000,64.000 182.000 C 63.780 182.000,63.600 181.190,63.600 180.200 C 63.600 179.210,63.420 178.400,63.200 178.400 C 62.980 178.400,62.800 177.410,62.800 176.200 C 62.800 174.990,62.620 174.000,62.400 174.000 C 62.180 174.000,62.000 173.094,62.000 171.987 C 62.000 170.568,61.823 169.907,61.400 169.745 C 60.969 169.579,60.800 168.906,60.800 167.357 C 60.800 166.171,60.620 165.200,60.400 165.200 C 60.180 165.200,60.000 164.480,60.000 163.600 C 60.000 162.720,59.820 162.000,59.600 162.000 C 59.380 162.000,59.200 161.370,59.200 160.600 L 59.200 159.200 45.600 159.200 C 32.267 159.200,32.000 159.216,32.000 160.000 M40.800 199.600 C 40.800 200.040,40.980 200.400,41.200 200.400 C 41.420 200.400,41.600 200.760,41.600 201.200 C 41.600 201.640,41.780 202.000,42.000 202.000 C 42.220 202.000,42.400 202.630,42.400 203.400 C 42.400 204.378,42.581 204.800,43.000 204.800 C 43.419 204.800,43.600 205.222,43.600 206.200 C 43.600 206.970,43.780 207.600,44.000 207.600 C 44.220 207.600,44.400 208.140,44.400 208.800 C 44.400 209.905,44.289 210.000,43.000 210.000 C 42.230 210.000,41.600 210.180,41.600 210.400 C 41.600 210.626,40.467 210.800,39.000 210.800 L 36.400 210.800 36.400 209.600 C 36.400 208.940,36.580 208.400,36.800 208.400 C 37.020 208.400,37.200 207.770,37.200 207.000 C 37.200 206.230,37.380 205.600,37.600 205.600 C 37.820 205.600,38.000 205.060,38.000 204.400 C 38.000 203.600,38.200 203.200,38.600 203.200 C 39.019 203.200,39.200 202.778,39.200 201.800 C 39.200 201.030,39.380 200.400,39.600 200.400 C 39.820 200.400,40.000 200.040,40.000 199.600 C 40.000 199.160,40.180 198.800,40.400 198.800 C 40.620 198.800,40.800 199.160,40.800 199.600 " stroke="none" fill="#fc0404" fill-rule="evenodd"></path><path id="path3" d="M119.600 165.800 C 119.600 171.400,119.691 172.400,120.200 172.400 C 120.713 172.400,120.800 173.533,120.800 180.200 C 120.800 185.133,120.947 188.000,121.200 188.000 C 121.457 188.000,121.600 192.067,121.600 199.400 C 121.600 206.733,121.743 210.800,122.000 210.800 C 122.251 210.800,122.400 213.400,122.400 217.800 L 122.400 224.800 135.200 224.800 L 148.000 224.800 148.000 221.000 C 148.000 218.733,148.161 217.200,148.400 217.200 C 148.633 217.200,148.800 215.867,148.800 214.000 C 148.800 211.067,148.867 210.800,149.600 210.800 C 150.044 210.800,150.400 211.067,150.400 211.400 C 150.400 211.893,151.111 212.000,154.400 212.000 C 156.800 212.000,158.400 212.160,158.400 212.400 C 158.400 212.620,158.760 212.800,159.200 212.800 C 159.881 212.800,160.000 212.533,160.000 211.000 C 160.000 210.010,160.180 209.200,160.400 209.200 C 160.626 209.200,160.800 208.067,160.800 206.600 C 160.800 204.556,160.928 204.000,161.400 204.000 C 161.844 204.000,162.000 203.533,162.000 202.200 C 162.000 201.210,162.180 200.400,162.400 200.400 C 162.620 200.400,162.800 199.860,162.800 199.200 L 162.800 198.000 156.200 198.000 C 152.067 198.000,149.600 198.149,149.600 198.400 C 149.600 198.620,149.420 198.800,149.200 198.800 C 148.980 198.800,148.800 198.350,148.800 197.800 C 148.800 197.250,148.980 196.800,149.200 196.800 C 149.446 196.800,149.600 194.800,149.600 191.600 L 149.600 186.400 156.600 186.400 L 163.600 186.400 163.600 182.800 C 163.600 180.667,163.763 179.200,164.000 179.200 C 164.250 179.200,164.400 176.800,164.400 172.800 C 164.400 168.800,164.550 166.400,164.800 166.400 C 165.037 166.400,165.200 164.933,165.200 162.800 L 165.200 159.200 142.400 159.200 L 119.600 159.200 119.600 165.800 " stroke="none" fill="#243cf4" fill-rule="evenodd"></path><path id="path4" d="M74.000 166.200 C 74.000 172.156,74.090 173.200,74.600 173.200 C 75.112 173.200,75.200 174.289,75.200 180.600 C 75.200 185.267,75.348 188.000,75.600 188.000 C 75.857 188.000,76.000 192.067,76.000 199.400 C 76.000 206.733,76.143 210.800,76.400 210.800 C 76.651 210.800,76.800 213.400,76.800 217.800 L 76.800 224.800 97.000 224.800 L 117.200 224.800 117.200 222.800 C 117.200 221.700,117.380 220.800,117.600 220.800 C 117.820 220.800,118.000 219.990,118.000 219.000 C 118.000 218.010,118.180 217.200,118.400 217.200 C 118.620 217.200,118.800 216.390,118.800 215.400 C 118.800 214.410,118.980 213.600,119.200 213.600 C 119.420 213.600,119.600 213.233,119.600 212.785 C 119.600 211.987,119.424 211.973,110.800 212.085 L 101.999 212.200 102.000 210.700 C 102.000 209.633,102.173 209.200,102.600 209.200 C 103.117 209.200,103.200 207.867,103.200 199.600 C 103.200 193.467,103.344 190.000,103.600 190.000 C 103.856 190.000,104.000 186.533,104.000 180.400 C 104.000 174.267,104.144 170.800,104.400 170.800 C 104.648 170.800,104.800 168.600,104.800 165.000 L 104.800 159.200 89.400 159.200 L 74.000 159.200 74.000 166.200 " stroke="none" fill="#04d454" fill-rule="evenodd"></path><path id="path5" d="M278.667 159.467 C 278.222 159.911,278.351 174.800,278.800 174.800 C 279.056 174.800,279.200 178.324,279.200 184.571 C 279.200 192.724,279.299 194.442,279.800 194.943 C 280.306 195.449,280.400 197.368,280.400 207.171 C 280.400 214.657,280.543 218.800,280.800 218.800 C 281.031 218.800,281.200 220.067,281.200 221.800 L 281.200 224.800 301.000 224.800 C 320.533 224.800,320.800 224.789,320.800 224.000 C 320.800 223.560,320.980 223.200,321.200 223.200 C 321.420 223.200,321.600 222.390,321.600 221.400 C 321.600 220.410,321.780 219.600,322.000 219.600 C 322.220 219.600,322.400 218.891,322.400 218.024 C 322.400 217.157,322.580 216.336,322.800 216.200 C 323.020 216.064,323.200 215.063,323.200 213.976 L 323.200 212.000 314.800 212.000 L 306.400 212.000 306.400 208.800 C 306.400 206.222,306.517 205.600,307.000 205.600 C 307.330 205.600,307.600 205.420,307.600 205.200 C 307.600 204.980,308.140 204.800,308.800 204.800 C 309.460 204.800,310.000 204.980,310.000 205.200 C 310.000 205.444,311.867 205.600,314.800 205.600 C 317.733 205.600,319.600 205.444,319.600 205.200 C 319.600 204.980,319.870 204.800,320.200 204.800 C 320.672 204.800,320.800 204.244,320.800 202.200 C 320.800 200.733,320.974 199.600,321.200 199.600 C 321.420 199.600,321.600 198.790,321.600 197.800 C 321.600 196.810,321.780 196.000,322.000 196.000 C 322.220 196.000,322.400 195.010,322.400 193.800 L 322.400 191.600 318.000 191.600 C 315.333 191.600,313.600 191.758,313.600 192.000 C 313.600 192.231,312.333 192.400,310.600 192.400 L 307.600 192.400 307.600 189.400 L 307.600 186.400 315.000 186.400 L 322.400 186.400 322.400 184.600 C 322.400 183.610,322.580 182.800,322.800 182.800 C 323.051 182.800,323.200 180.333,323.200 176.200 C 323.200 172.067,323.349 169.600,323.600 169.600 C 323.846 169.600,324.000 167.600,324.000 164.400 L 324.000 159.200 301.467 159.200 C 289.073 159.200,278.813 159.320,278.667 159.467 " stroke="none" fill="#9ce4b4" fill-rule="evenodd"></path><path id="path6" d="M178.400 160.000 C 178.400 160.440,178.220 160.800,178.000 160.800 C 177.771 160.800,177.600 162.000,177.600 163.600 C 177.600 165.200,177.429 166.400,177.200 166.400 C 176.980 166.400,176.800 167.390,176.800 168.600 C 176.800 169.810,176.620 170.800,176.400 170.800 C 176.174 170.800,176.000 171.933,176.000 173.400 C 176.000 174.867,175.826 176.000,175.600 176.000 C 175.380 176.000,175.200 176.990,175.200 178.200 C 175.200 179.889,175.061 180.400,174.600 180.400 C 174.139 180.400,174.000 180.911,174.000 182.600 C 174.000 183.810,173.820 184.800,173.600 184.800 C 173.380 184.800,173.200 185.509,173.200 186.376 C 173.200 187.243,173.020 188.064,172.800 188.200 C 172.580 188.336,172.400 189.337,172.400 190.424 C 172.400 191.511,172.220 192.400,172.000 192.400 C 171.780 192.400,171.600 193.210,171.600 194.200 C 171.600 195.190,171.420 196.000,171.200 196.000 C 170.980 196.000,170.800 196.810,170.800 197.800 C 170.800 199.133,170.644 199.600,170.200 199.600 C 169.756 199.600,169.600 200.067,169.600 201.400 C 169.600 202.390,169.420 203.200,169.200 203.200 C 168.980 203.200,168.800 203.909,168.800 204.776 C 168.800 205.643,168.620 206.464,168.400 206.600 C 168.180 206.736,168.000 207.726,168.000 208.800 C 168.000 209.874,167.820 210.864,167.600 211.000 C 167.380 211.136,167.200 211.957,167.200 212.824 C 167.200 213.691,167.020 214.400,166.800 214.400 C 166.580 214.400,166.400 215.191,166.400 216.157 C 166.400 217.350,166.207 217.988,165.800 218.145 C 165.404 218.297,165.200 218.923,165.200 219.987 C 165.200 220.874,165.020 221.600,164.800 221.600 C 164.580 221.600,164.400 222.320,164.400 223.200 L 164.400 224.800 171.400 224.800 C 178.133 224.800,178.400 224.770,178.400 224.000 C 178.400 223.560,178.580 223.200,178.800 223.200 C 179.020 223.200,179.200 222.390,179.200 221.400 C 179.200 220.067,179.356 219.600,179.800 219.600 C 180.130 219.600,180.400 219.870,180.400 220.200 C 180.400 220.530,180.580 220.800,180.800 220.800 C 181.020 220.800,181.200 221.160,181.200 221.600 C 181.200 222.040,181.380 222.400,181.600 222.400 C 181.820 222.400,182.000 222.940,182.000 223.600 C 182.000 224.260,182.180 224.800,182.400 224.800 C 182.620 224.800,182.800 225.250,182.800 225.800 C 182.800 226.650,182.985 226.800,184.029 226.800 C 185.132 226.800,186.400 226.057,186.400 225.410 C 186.400 224.854,188.416 223.200,189.094 223.200 C 189.495 223.200,190.083 222.840,190.400 222.400 C 190.717 221.960,191.297 221.600,191.688 221.600 C 192.080 221.600,192.400 221.420,192.400 221.200 C 192.400 220.980,192.850 220.800,193.400 220.800 C 194.244 220.800,194.400 220.987,194.400 222.000 C 194.400 222.660,194.580 223.200,194.800 223.200 C 195.020 223.200,195.200 223.560,195.200 224.000 C 195.200 224.783,195.467 224.800,208.000 224.800 C 220.533 224.800,220.800 224.783,220.800 224.000 C 220.800 223.556,220.533 223.200,220.200 223.200 C 219.756 223.200,219.600 222.733,219.600 221.400 C 219.600 220.410,219.420 219.600,219.200 219.600 C 218.980 219.600,218.800 218.880,218.800 218.000 C 218.800 217.120,218.620 216.400,218.400 216.400 C 218.180 216.400,218.000 215.590,218.000 214.600 C 218.000 213.610,217.820 212.800,217.600 212.800 C 217.380 212.800,217.200 211.990,217.200 211.000 C 217.200 210.010,217.020 209.200,216.800 209.200 C 216.580 209.200,216.400 208.210,216.400 207.000 C 216.400 205.311,216.261 204.800,215.800 204.800 C 215.356 204.800,215.200 204.333,215.200 203.000 C 215.200 202.010,215.020 201.200,214.800 201.200 C 214.580 201.200,214.400 200.480,214.400 199.600 C 214.400 198.720,214.220 198.000,214.000 198.000 C 213.780 198.000,213.600 197.190,213.600 196.200 C 213.600 195.210,213.420 194.400,213.200 194.400 C 212.980 194.400,212.800 193.410,212.800 192.200 C 212.800 190.990,212.620 190.000,212.400 190.000 C 212.180 190.000,212.000 189.274,212.000 188.387 C 212.000 187.323,211.796 186.697,211.400 186.545 C 210.969 186.379,210.800 185.706,210.800 184.157 C 210.800 182.971,210.620 182.000,210.400 182.000 C 210.180 182.000,210.000 181.190,210.000 180.200 C 210.000 179.210,209.820 178.400,209.600 178.400 C 209.380 178.400,209.200 177.410,209.200 176.200 C 209.200 174.990,209.020 174.000,208.800 174.000 C 208.580 174.000,208.400 173.111,208.400 172.024 C 208.400 170.937,208.220 169.936,208.000 169.800 C 207.780 169.664,207.600 168.658,207.600 167.564 C 207.600 166.165,207.422 165.507,207.000 165.345 C 206.609 165.195,206.400 164.572,206.400 163.557 C 206.400 162.701,206.220 162.000,206.000 162.000 C 205.780 162.000,205.600 161.370,205.600 160.600 L 205.600 159.200 192.000 159.200 C 178.667 159.200,178.400 159.216,178.400 160.000 M187.200 199.600 C 187.200 200.040,187.380 200.400,187.600 200.400 C 187.820 200.400,188.000 200.760,188.000 201.200 C 188.000 201.644,188.267 202.000,188.600 202.000 C 189.019 202.000,189.200 202.422,189.200 203.400 C 189.200 204.170,189.380 204.800,189.600 204.800 C 189.820 204.800,190.000 205.430,190.000 206.200 C 190.000 206.970,190.180 207.600,190.400 207.600 C 190.620 207.600,190.800 208.140,190.800 208.800 C 190.800 209.861,190.664 210.000,189.624 210.000 C 188.977 210.000,188.336 210.180,188.200 210.400 C 188.064 210.620,186.793 210.800,185.376 210.800 L 182.800 210.800 182.800 209.600 C 182.800 208.940,182.980 208.400,183.200 208.400 C 183.420 208.400,183.600 207.770,183.600 207.000 C 183.600 206.022,183.781 205.600,184.200 205.600 C 184.600 205.600,184.800 205.200,184.800 204.400 C 184.800 203.740,184.980 203.200,185.200 203.200 C 185.420 203.200,185.600 202.570,185.600 201.800 C 185.600 201.030,185.780 200.400,186.000 200.400 C 186.220 200.400,186.400 200.040,186.400 199.600 C 186.400 199.160,186.580 198.800,186.800 198.800 C 187.020 198.800,187.200 199.160,187.200 199.600 " stroke="none" fill="#f48c04" fill-rule="evenodd"></path><path id="path7" d="" stroke="none" fill="#989080" fill-rule="evenodd"></path><path id="path8" d="" stroke="none" fill="#98e454" fill-rule="evenodd"></path></g></svg>